<?xml version="1.0" encoding="UTF-8" standalone="no"?>
<svg
   xmlns:dc="http://purl.org/dc/elements/1.1/"
   xmlns:cc="http://creativecommons.org/ns#"
   xmlns:rdf="http://www.w3.org/1999/02/22-rdf-syntax-ns#"
   xmlns:svg="http://www.w3.org/2000/svg"
   xmlns="http://www.w3.org/2000/svg"
   xmlns:xlink="http://www.w3.org/1999/xlink"
   width="128"
   viewBox="0 0 128 128"
   version="1.0"
   style="display:inline;enable-background:new"
   id="svg11300"
   height="128">
  <metadata
     id="metadata154">
    <rdf:RDF>
      <cc:Work
         rdf:about="">
        <dc:format>image/svg+xml</dc:format>
        <dc:type
           rdf:resource="http://purl.org/dc/dcmitype/StillImage" />
        <dc:title>elementary Icon Template</dc:title>
      </cc:Work>
    </rdf:RDF>
  </metadata>
  <title
     id="title4162">elementary Icon Template</title>
  <defs
     id="defs3">
    <linearGradient
       id="linearGradient5080">
      <stop
         offset="0"
         style="stop-color:#7239b3;stop-opacity:1"
         id="stop5076" />
      <stop
         offset="1"
         style="stop-color:#a56de2;stop-opacity:1"
         id="stop5078" />
    </linearGradient>
    <linearGradient
       id="linearGradient4712">
      <stop
         style="stop-color:#000000;stop-opacity:1;"
         offset="0"
         id="stop4708" />
      <stop
         style="stop-color:#000000;stop-opacity:0;"
         offset="1"
         id="stop4710" />
    </linearGradient>
    <linearGradient
       id="34542">
      <stop
         style="stop-color:#ffffff;stop-opacity:1"
         offset="0"
         id="stop3456-4-9-38-1-8" />
      <stop
         style="stop-color:#ffffff;stop-opacity:0.23529412"
         offset="0.002736"
         id="stop3458-39-80-3-5-5" />
      <stop
         style="stop-color:#ffffff;stop-opacity:0.15686275"
         offset="0.99001008"
         id="stop3460-7-0-2-4-2" />
      <stop
         style="stop-color:#ffffff;stop-opacity:0.39215687"
         offset="1"
         id="stop3462-0-9-8-7-2" />
    </linearGradient>
    <linearGradient
       id="50485">
      <stop
         style="stop-color:#000000;stop-opacity:0"
         offset="0"
         id="stop2667-18" />
      <stop
         style="stop-color:#000000;stop-opacity:1"
         offset="0.5"
         id="stop2669-9" />
      <stop
         style="stop-color:#000000;stop-opacity:0"
         offset="1"
         id="stop2671-33" />
    </linearGradient>
    <linearGradient
       id="46464">
      <stop
         style="stop-color:#f9f9f9;stop-opacity:1"
         offset="0"
         id="stop4648-8-0-3-6" />
      <stop
         style="stop-color:#d8d8d8;stop-opacity:1"
         offset="1"
         id="stop4650-1-7-3-4" />
    </linearGradient>
    <linearGradient
       y2="609.50507"
       y1="366.64789"
       x2="302.85715"
       x1="302.85715"
       id="linearGradient22546"
       xlink:href="#50485"
       gradientUnits="userSpaceOnUse"
       gradientTransform="matrix(0.21400397,0,0,0.06588235,-13.34714,82.994307)" />
    <radialGradient
       r="117.14286"
       id="radialGradient22548"
       xlink:href="#linearGradient4712"
       gradientUnits="userSpaceOnUse"
       gradientTransform="matrix(0.08300137,0,0,0.06588235,65.64502,82.994307)"
       fy="486.64789"
       fx="605.71429"
       cy="486.64789"
       cx="605.71429" />
    <radialGradient
       r="117.14286"
       id="radialGradient22550"
       xlink:href="#linearGradient4712"
       gradientUnits="userSpaceOnUse"
       gradientTransform="matrix(-0.08300135,0,0,0.06588235,62.35497,82.994307)"
       fy="486.64789"
       fx="605.71429"
       cy="486.64789"
       cx="605.71429" />
    <linearGradient
       y2="21.215551"
       y1="19.663828"
       x2="63.412205"
       x1="63.412205"
       id="linearGradient29482"
       xlink:href="#46464"
       gradientUnits="userSpaceOnUse"
       gradientTransform="matrix(2.7619048,0,0,2.7619048,-142.97955,-2.644346)" />
    <linearGradient
       y2="22.380869"
       y1="-11.032269"
       x2="27.3354"
       x1="27.3354"
       id="linearGradient4242"
       xlink:href="#34542"
       gradientUnits="userSpaceOnUse"
       gradientTransform="matrix(1.7837124,0,0,1.7358442,8.24151,77.150247)" />
    <linearGradient
       x1="97.538795"
       y1="12.108284"
       x2="97.538795"
       y2="44.260689"
       id="linearGradient5873"
       xlink:href="#linearGradient9235"
       gradientUnits="userSpaceOnUse"
       gradientTransform="matrix(2.6658408,0,0,2.6469079,-143.33283,-1.0498827)" />
    <linearGradient
       id="linearGradient9235">
      <stop
         id="stop9237"
         style="stop-color:#ffffff;stop-opacity:1"
         offset="0" />
      <stop
         id="stop9239"
         style="stop-color:#ffffff;stop-opacity:0.23529412"
         offset="0.02350054" />
      <stop
         id="stop9241"
         style="stop-color:#ffffff;stop-opacity:0.15686275"
         offset="0.97909725" />
      <stop
         id="stop9243"
         style="stop-color:#ffffff;stop-opacity:0.39215687"
         offset="1" />
    </linearGradient>
    <linearGradient
       id="linearGradient4632-0-6-4-4-4">
      <stop
         id="stop4634-4-4-7-4"
         style="stop-color:#efdfc4;stop-opacity:1"
         offset="0" />
      <stop
         id="stop4636-3-1-5-9"
         style="stop-color:#e7c591;stop-opacity:1"
         offset="1" />
    </linearGradient>
    <linearGradient
       xlink:href="#linearGradient4632-0-6-4-4-4"
       id="linearGradient997"
       gradientUnits="userSpaceOnUse"
       gradientTransform="matrix(0.50413225,0,0,0.49333391,-142.29195,52.540598)"
       x1="413.60635"
       y1="8.1271658"
       x2="413.60635"
       y2="130.48463" />
    <linearGradient
       gradientUnits="userSpaceOnUse"
       y2="86.999947"
       x2="127.08949"
       y1="86.999947"
       x1="0.91335171"
       id="linearGradient5074"
       xlink:href="#linearGradient5080" />
    <linearGradient
       id="linearGradient8838">
      <stop
         offset="0"
         style="stop-color:#7f7f7f;stop-opacity:1"
         id="stop8840" />
      <stop
         offset="1"
         style="stop-color:#808080;stop-opacity:0"
         id="stop8842" />
    </linearGradient>
    <radialGradient
       gradientTransform="matrix(1,0,0,0.341176,0,3.047059)"
       gradientUnits="userSpaceOnUse"
       xlink:href="#linearGradient8838"
       id="radialGradient2759"
       fy="4.625"
       fx="62.625"
       r="10.625"
       cy="4.625"
       cx="62.625" />
    <linearGradient
       id="linearGradient3277-442">
      <stop
         offset="0"
         style="stop-color:#575757;stop-opacity:1"
         id="stop3378" />
      <stop
         offset="1"
         style="stop-color:#333333;stop-opacity:1"
         id="stop3380" />
    </linearGradient>
    <linearGradient
       gradientTransform="matrix(1.0113456,0,0,1.0013346,-0.1475723,1.8143278)"
       gradientUnits="userSpaceOnUse"
       xlink:href="#linearGradient3277-442"
       id="linearGradient2782"
       y2="29.484051"
       x2="31.364458"
       y1="27.988184"
       x1="32.892574" />
    <linearGradient
       id="linearGradient11114-516">
      <stop
         offset="0"
         style="stop-color:#242424;stop-opacity:0.99215686"
         id="stop3372" />
      <stop
         offset="1"
         style="stop-color:#656565;stop-opacity:1"
         id="stop3374" />
    </linearGradient>
    <linearGradient
       gradientTransform="matrix(0.3936567,0,0,0.38976,101.37812,-4.2393119)"
       gradientUnits="userSpaceOnUse"
       xlink:href="#linearGradient11114-516"
       id="linearGradient2780"
       y2="91.972626"
       x2="-164.71831"
       y1="99.667191"
       x1="-172.65306" />
    <linearGradient
       id="linearGradient12093-170">
      <stop
         offset="0"
         style="stop-color:#ffffff;stop-opacity:1"
         id="stop3384" />
      <stop
         offset="1"
         style="stop-color:#ffffff;stop-opacity:0"
         id="stop3386" />
    </linearGradient>
    <linearGradient
       gradientTransform="matrix(0.3936567,0,0,0.38976,-50.208746,-0.4726547)"
       gradientUnits="userSpaceOnUse"
       xlink:href="#linearGradient12093-170"
       id="linearGradient2778"
       y2="67.350082"
       x2="201.87128"
       y1="146.1507"
       x1="277.573" />
    <linearGradient
       id="linearGradient4454-600">
      <stop
         offset="0"
         style="stop-color:#a1a1a1;stop-opacity:0.20784314"
         id="stop3408" />
      <stop
         offset="1"
         style="stop-color:#a1a1a1;stop-opacity:0.67843139"
         id="stop3410" />
    </linearGradient>
    <radialGradient
       gradientUnits="userSpaceOnUse"
       xlink:href="#linearGradient4454-600"
       id="radialGradient2776"
       fy="21.817987"
       fx="18.240929"
       r="8.3085051"
       cy="21.817987"
       cx="18.240929" />
    <linearGradient
       id="linearGradient4467-402">
      <stop
         offset="0"
         style="stop-color:#ffffff;stop-opacity:1"
         id="stop3390" />
      <stop
         offset="1"
         style="stop-color:#ffffff;stop-opacity:0.24761905"
         id="stop3392" />
    </linearGradient>
    <radialGradient
       gradientTransform="matrix(3.0710057,0,0,2.3628614,-33.010584,-21.34546)"
       gradientUnits="userSpaceOnUse"
       xlink:href="#linearGradient4467-402"
       id="radialGradient2774"
       fy="13.078408"
       fx="15.414371"
       r="6.65625"
       cy="13.078408"
       cx="15.414371" />
    <linearGradient
       id="linearGradient11104-770">
      <stop
         offset="0"
         style="stop-color:#333333;stop-opacity:1"
         id="stop3402" />
      <stop
         offset="1"
         style="stop-color:#333333;stop-opacity:0.6122449"
         id="stop3404" />
    </linearGradient>
    <linearGradient
       gradientTransform="matrix(0.4037708,0,0,0.399774,0.5399201,2.6759154)"
       gradientUnits="userSpaceOnUse"
       xlink:href="#linearGradient11104-770"
       id="linearGradient2772"
       y2="4.5362983"
       x2="41.485142"
       y1="68.291702"
       x1="41.541653" />
    <linearGradient
       id="linearGradient2300-465">
      <stop
         offset="0"
         style="stop-color:#343434;stop-opacity:0.97647059"
         id="stop3396" />
      <stop
         offset="1"
         style="stop-color:#929292;stop-opacity:1"
         id="stop3398" />
    </linearGradient>
    <linearGradient
       gradientTransform="matrix(0.4037708,0,0,0.399774,-51.833663,-0.3327449)"
       gradientUnits="userSpaceOnUse"
       xlink:href="#linearGradient2300-465"
       id="linearGradient2770"
       y2="11.949074"
       x2="173.09576"
       y1="75.31868"
       x1="173.09576" />
    <linearGradient
       id="linearGradient6209-717">
      <stop
         offset="0"
         style="stop-color:#979797;stop-opacity:1"
         id="stop3366" />
      <stop
         offset="1"
         style="stop-color:#000000;stop-opacity:0.34117648"
         id="stop3368" />
    </linearGradient>
    <linearGradient
       gradientTransform="matrix(0.3845313,0,0,0.3807249,-48.396976,0.258476)"
       gradientUnits="userSpaceOnUse"
       xlink:href="#linearGradient6209-717"
       id="linearGradient2768"
       y2="11.949074"
       x2="173.09576"
       y1="75.31868"
       x1="173.09576" />
  </defs>
  <path
     d="m 12.83723,22.031037 c -1.108,-9e-5 -1.83721,1.07377 -1.83721,2.18177 L 11,30.000107 H 8 c -1.108,0 -2,0.892 -2,2 v 30.99984 h 116 l 0.0361,-30.99984 c 10e-4,-1.108 -0.892,-2 -2,-2 L 57,29.999947 56.9505,24.034577 c -0.009,-1.10796 -0.892,-1.99991 -2,-2 z"
     id="rect8678-4-5"
     style="color:#000000;display:inline;overflow:visible;visibility:visible;fill:url(#linearGradient29482);fill-opacity:1;fill-rule:nonzero;stroke:none;stroke-width:0.99992168;marker:none;enable-background:accumulate" />
  <path
     d="m 13.50002,21.499947 c -1.87818,0.0205 -2.99999,1.09607 -3,2.85402 l -2e-5,5.14598 c -0.9606,0 -1.4771,-0.003 -2.1044,0 -1.67856,0.008 -2.87762,0.94491 -2.87762,2.83298 C 5.61158,59.830577 5.5,63.499947 5.5,63.499947 h 117 l 0.036,-31.19486 c 0.002,-1.75796 -1.15786,-2.82564 -3.03605,-2.80514 h -62 v -5.01742 c 0,-1.75795 -1.23699,-2.97889 -2.99783,-2.97904 L 13.5,21.499947 Z"
     id="path3468-0"
     style="color:#000000;display:inline;overflow:visible;visibility:visible;opacity:0.5;fill:none;stroke:#7e8087;stroke-width:0.99200022;stroke-linecap:square;stroke-linejoin:miter;stroke-miterlimit:4;stroke-dasharray:none;stroke-dashoffset:0;stroke-opacity:1;marker:none;enable-background:accumulate;font-variant-east_asian:normal;vector-effect:none;fill-opacity:1" />
  <path
     d="m 13.33723,22.499787 c -1.108,-10e-5 -1.83721,1.07377 -1.83721,2.18177 l -2e-5,5.81855 h -3 c -1.108,0 -2,0.892 -2,2 l 2e-5,29.99984 h 115 l 0.036,-29.99984 c 0.001,-1.108 -0.892,-2 -2,-2 L 56.5,30.499947 l 2e-5,-5.81839 c 0,-1.108 -0.94156,-2.17814 -2.04956,-2.17823 z"
     id="rect8678-8"
     style="color:#000000;display:inline;overflow:visible;visibility:visible;opacity:1;fill:none;stroke:url(#linearGradient5873);stroke-width:0.99999982;stroke-linecap:round;stroke-linejoin:round;stroke-miterlimit:4;stroke-dasharray:none;stroke-dashoffset:0;stroke-opacity:1;marker:none;enable-background:accumulate;font-variant-east_asian:normal;vector-effect:none;fill-opacity:1" />
  <rect
     height="16"
     id="rect22540"
     style="display:inline;overflow:visible;visibility:visible;opacity:0.3;fill:url(#linearGradient22546);fill-opacity:1;fill-rule:nonzero;stroke:none;stroke-width:0.99732828;marker:none"
     width="103.33332"
     x="12.333344"
     y="107.14993" />
  <path
     d="m 115.66666,107.15048 c 0,0 0,15.99912 0,15.99912 4.27437,0.0301 10.33334,-3.58459 10.33334,-8.00059 0,-4.416 -4.76988,-7.99853 -10.33334,-7.99853 z"
     id="path22542"
     style="display:inline;overflow:visible;visibility:visible;opacity:0.3;fill:url(#radialGradient22548);fill-opacity:1;fill-rule:nonzero;stroke:none;stroke-width:0.99732828;marker:none" />
  <path
     d="m 12.33334,107.15048 c 0,0 0,15.99912 0,15.99912 C 8.05897,123.17975 2,119.56501 2,115.14901 c 0,-4.416 4.76987,-7.99853 10.33334,-7.99853 z"
     id="path22544"
     style="display:inline;overflow:visible;visibility:visible;opacity:0.3;fill:url(#radialGradient22550);fill-opacity:1;fill-rule:nonzero;stroke:none;stroke-width:0.99732828;marker:none" />
  <path
     d="M 1.5,59.499947 6,115.49995 c 0,0 0,2 2,2 h 111.99935 c 2.00065,0 2.00065,-2 2.00065,-2 l 4.5,-56.000003 c 0.097,-0.99902 0.5,-3 -2,-3 H 4 c -3,0 -2.61436,2.02287 -2.5,3 z"
     id="path4232"
     style="color:#000000;display:inline;overflow:visible;visibility:visible;fill:url(#linearGradient5074);fill-opacity:1;fill-rule:nonzero;stroke:#452981;stroke-width:0.99999982;stroke-miterlimit:4;stroke-dasharray:none;stroke-opacity:0.49803922;marker:none;enable-background:accumulate;font-variant-east_asian:normal;opacity:1;vector-effect:none;stroke-linecap:butt;stroke-linejoin:miter;stroke-dashoffset:0" />
  <path
     d="M 2.53891,59.641217 7,115.49995 c 0,0 0,1 1,1 h 112 c 1,0 1,-1 1,-1 l 4.5,-56.000003 c 0.15378,-1.59495 0,-2 -1,-2 H 4.04143 c -1.04143,0 -1.80961,-0.22529 -1.50252,2.14127 z"
     id="path4234"
     style="color:#000000;display:inline;overflow:visible;visibility:visible;opacity:0.5;fill:none;stroke:url(#linearGradient4242);stroke-width:1;stroke-linecap:round;stroke-linejoin:miter;stroke-miterlimit:4;stroke-dasharray:none;stroke-dashoffset:0;stroke-opacity:1;marker:none;enable-background:accumulate" />
  <g
     transform="matrix(2.7632214,0,0,2.7632214,-2.5015129,-4.6692806)"
     id="layer1">
    <path
       style="display:inline;overflow:visible;visibility:visible;opacity:0.3;fill:url(#radialGradient2759);fill-opacity:1;fill-rule:evenodd;stroke:none;stroke-width:0.99999988;marker:none"
       id="path8836"
       transform="matrix(2.149872,0,0,1.6619216,-110.63573,34.289147)"
       d="m 73.25,4.625 a 10.625,3.625 0 1 1 -21.25,0 10.625,3.625 0 1 1 21.25,0 z" />
    <path
       style="display:inline;fill:url(#linearGradient2780);fill-opacity:1;fill-rule:evenodd;stroke:url(#linearGradient2782);stroke-width:1.25790954;stroke-linecap:round;stroke-linejoin:round;stroke-miterlimit:4;stroke-dasharray:none;stroke-opacity:1"
       id="path11112"
       d="m 28.183928,24.771802 17.601461,16.2194 -2.439808,3.278384 -17.537714,-17.545053 z" />
    <path
       style="display:inline;fill:url(#linearGradient2778);fill-opacity:1;fill-rule:evenodd;stroke:none"
       id="path11122"
       d="M 43.375247,43.204937 29.259227,25.777711 46.337872,40.616736 Z" />
    <path
       style="display:inline;fill:#3e3e3e;fill-opacity:1;stroke:none"
       id="path13082"
       transform="matrix(0.3701926,-0.4150383,0.4745098,0.3092893,-97.502604,109.5756)"
       d="m 247.90924,110.29199 a 4.86685,2.6562012 0 1 1 -9.7337,0 4.86685,2.6562012 0 1 1 9.7337,0 z" />
    <path
       style="display:inline;visibility:visible;fill:url(#radialGradient2776);fill-opacity:1;fill-rule:evenodd;stroke:none;stroke-width:0.88163906;marker:none"
       id="path4452"
       transform="matrix(1.4889549,0,0,1.4383688,-7.506469,-10.003202)"
       d="m 25.897786,18.478292 a 8.3085051,8.3085051 0 1 1 -16.61701,0 8.3085051,8.3085051 0 1 1 16.61701,0 z" />
    <path
       style="display:inline;overflow:visible;visibility:visible;opacity:0.83422457;fill:url(#radialGradient2774);fill-opacity:1;fill-rule:evenodd;stroke:none;stroke-width:1;marker:none"
       id="path4462"
       d="m 18.173574,6.2875092 c -6.167668,0 -11.1620724,4.4243448 -11.1620724,9.8880428 0,1.577938 0.1382919,3.207765 0.8807217,4.531967 1.4832709,0.484315 3.4184287,0.635856 5.0907577,0.635856 7.308643,0 13.594949,-5.367693 14.045982,-11.7419735 C 24.978875,7.4552716 21.59337,6.2875092 18.173574,6.2875092 Z" />
    <path
       style="display:inline;fill:url(#linearGradient2770);fill-opacity:1;stroke:url(#linearGradient2772);stroke-width:1.29022872;stroke-linecap:round;stroke-linejoin:round;stroke-miterlimit:4;stroke-dasharray:none;stroke-opacity:1"
       id="path2298"
       d="m 18.411216,4.6414839 c -7.597567,0 -13.7660654,5.6316951 -13.7660613,12.5678951 0,6.9362 6.1684943,12.567893 13.7660613,12.567894 7.59756,0 13.766059,-5.631694 13.766059,-12.567894 0,-6.9362 -6.168495,-12.5678951 -13.766059,-12.5678951 z m 0.16403,0.824534 c 6.799869,0 12.327628,5.0356991 12.327628,11.2436431 0,6.207944 -5.527759,11.243643 -12.327628,11.243643 -6.799871,1e-6 -12.3150081,-5.035698 -12.3150081,-11.243643 0,-6.207944 5.5151371,-11.2436431 12.3150081,-11.2436431 z" />
    <path
       style="display:inline;fill:url(#linearGradient2768);fill-opacity:1;stroke:none"
       id="path4267"
       d="m 18.49954,5.0037791 c -7.235544,0 -13.0973151,5.3625389 -13.0973151,11.9682339 0,6.605694 5.8617671,11.968234 13.0973151,11.968233 7.235544,0 13.109932,-5.36254 13.109932,-11.968233 0,-6.605695 -5.874392,-11.9682339 -13.109932,-11.9682339 z m 0.07571,0.4622387 c 6.799867,0 11.788366,5.0356992 11.788366,11.2436432 0,6.207944 -4.988499,10.70972 -11.788366,10.70972 -6.799872,10e-7 -11.8656244,-4.501775 -11.8656244,-10.70972 0,-6.207944 5.0657524,-11.2436432 11.8656244,-11.2436432 z" />
  </g>
</svg>
